{"title":"Coriolanus.2011.LIMITED.720p.BRRip.XviD.Ac3.Feel-Free","uid":7253223,"size":3096065134,"categoryP":"video","categoryS":"hd___movies","magnet":"?xt=urn:btih:c32922be343f5b728c3d490b26ddccc5e3c8b306&amp;dn=Coriolanus.2011.LIMITED.720p.BRRip.XviD.Ac3.Feel-Free&amp;tr=udp%3A%2F%2Ftracker.openbittorrent.com%3A80&amp;tr=udp%3A%2F%2Fopen.demonii.com%3A1337&amp;tr=udp%3A%2F%2Ftracker.coppersurfer.tk%3A6969&amp;tr=udp%3A%2F%2Fexodus.desync.com%3A6969","seeders":1,"leechers":0,"uploader":null,"files":7,"time":1336508531,"description":"Genre:Drama | Thriller\n Language:English\n IMDb:http://www.imdb.com/title/tt1372686/\n Source: BluRay x264-SPARKS Thanks!\n Encoder:Tony\n \nFormat : MPEG-4\n Format profile : Base Media\n Codec ID : isom\n File size : 2.88 GiB\n Duration : 2h 3mn\n Overall bit rate mode : Variable\n Overall bit rate : 3 343 Kbps\n \nVideo\n ID : 1\n Format : AVC\n Format/Info : Advanced Video Codec\n Format profile : &lt;a class=&quot;__cf_email__&quot; href=&quot;/cdn-cgi/l/email-protection&quot; data-cfemail=&quot;fab2939d92bab6cfd4cb&quot;&gt;[email&amp;#160;protected]&lt;/a&gt;&lt;script cf-hash='f9e31' type=&quot;text/javascript&quot;&gt;\n/* &lt;![CDATA[ */!function(){try{var t=&quot;currentScript&quot;in document?document.currentScript:function(){for(var t=document.getElementsByTagName(&quot;script&quot;),e=t.length;e--;)if(t[e].getAttribute(&quot;cf-hash&quot;))return t[e]}();if(t&amp;&amp;t.previousSibling){var e,r,n,i,c=t.previousSibling,a=c.getAttribute(&quot;data-cfemail&quot;);if(a){for(e=&quot;&quot;,r=parseInt(a.substr(0,2),16),n=2;a.length-n;n+=2)i=parseInt(a.substr(n,2),16)^r,e+=String.fromCharCode(i);e=document.createTextNode(e),c.parentNode.replaceChild(e,c)}}}catch(u){}}();/* ]]&gt; */&lt;/script&gt;\n Format settings, CABAC : Yes\n Format settings, ReFrames : 3 frames\n Codec ID : avc1\n Codec ID/Info : Advanced Video Coding\n Duration : 2h 3mn\n Bit rate : 3 000 Kbps\n Maximum bit rate : 28.4 Mbps\n Width : 1 280 pixels\n Height : 544 pixels\n Display aspect ratio : 2.35:1\n Frame rate mode : Constant\n Frame rate : 23.976 fps\n Color space : YUV\n Chroma subsampling : 4:2:0\n Bit depth : 8 bits\n Scan type : Progressive\n Bits/(Pixel*Frame) : 0.180\n Stream size : 2.52 GiB (87%)\n Writing library : x264\n \nAudio\n ID : 2\n Format : AAC\n Format/Info : Advanced Audio Codec\n Format profile : LC\n Codec ID : 40\n Duration : 2h 3mn\n Bit rate mode : Variable\n Bit rate : 419 Kbps\n Maximum bit rate : 565 Kbps\n Channel(s) : 6 channels\n Channel positions : Front: L C R, Side: L R, LFE\n Sampling rate : 48.0 KHz\n Compression mode : Lossy\n Stream size : 370 MiB (13%)\n \n\nPlot:\n A banished hero of Rome allies with a sworn enemy to take his revenge on the city.\n \n","torrent":{"xt":"urn:btih:c32922be343f5b728c3d490b26ddccc5e3c8b306","amp;dn":"Coriolanus.2011.LIMITED.720p.BRRip.XviD.Ac3.Feel-Free","amp;tr":["udp%3A%2F%2Ftracker.openbittorrent.com%3A80","udp%3A%2F%2Fopen.demonii.com%3A1337","udp%3A%2F%2Ftracker.coppersurfer.tk%3A6969","udp%3A%2F%2Fexodus.desync.com%3A6969"],"infoHash":"c32922be343f5b728c3d490b26ddccc5e3c8b306","infoHashBuffer":{"type":"Buffer","data":[195,41,34,190,52,63,91,114,140,61,73,11,38,221,204,197,227,200,179,6]},"announce":[],"urlList":[]}}